<?xml version="1.0" encoding="utf-8"?>
<!-- Generator: Adobe Illustrator 24.2.0, SVG Export Plug-In . SVG Version: 6.00 Build 0)  -->
<svg version="1.1" id="Layer_1" xmlns="http://www.w3.org/2000/svg" xmlns:xlink="http://www.w3.org/1999/xlink" x="0px" y="0px"
	 viewBox="0 0 500 500" style="enable-background:new 0 0 500 500;" xml:space="preserve">
<style type="text/css">
	.st0{fill:url(#SVGID_1_);}
	.st1{fill:#FEFEFE;}
</style>
<linearGradient id="SVGID_1_" gradientUnits="userSpaceOnUse" x1="250" y1="19.7" x2="250" y2="484.3" gradientTransform="matrix(1 0 0 -1 0 502)">
	<stop  offset="0" style="stop-color:#E6873D"/>
	<stop  offset="1" style="stop-color:#E8914A"/>
</linearGradient>
<path class="st0" d="M375.3,482.3H124.7c-59.1,0-107-47.9-107-107V124.7c0-59.1,47.9-107,107-107h250.6c59.1,0,107,47.9,107,107
	v250.6C482.3,434.4,434.4,482.3,375.3,482.3z"/>
<path class="st1" d="M121.6,249.4c2.9-1.7,5.8-3.3,8.7-5c4.1-2.2,8.7-3.1,13.1-4.4c1.7-0.5,3.5-0.1,5.2-0.8c0.8-0.4,1.3-0.8,1.4-1.6
	c0.3-2,0.8-3.9,0.9-6c0.2-2.2,0.7-4.5,1.4-6.6c0.4-1.1,0.4-2.1,0.4-3.1c0,0,0,0,0,0c0.6-1.2,1-2.5,1.1-3.8l0,0
	c1-1.7,1.3-3.7,2.1-5.4c1.7-4,3.8-7.9,5.9-11.7l0,0c2.5-3.5,4.6-7.3,7.4-10.6c3.7-4.5,7.8-8.6,12.3-12.4c0.2-0.2,0.5-0.4,0.6-0.7
	l0,0c4.1-3,8.3-6,12.7-8.5c3.7-2.1,7.7-3.8,11.6-5.6c0.7-0.3,1.4,0.1,2-0.4c2.9-1.1,5.9-2,9-2.7c4-1,8-1.5,12-2.2c0.2,0,0.5,0,0.7,0
	c5.7-0.9,11.4-0.8,17.2,0c0.2,0,0.5,0,0.7,0c1.1,0.5,2.3-0.1,3.5,0.4c6.6,1.2,13.2,2.7,19.4,5.1c6.2,2.4,12.1,5.6,17.7,9.3
	c0.3,0.2,0.6,0.4,1,0.4c8.8,6,16,13.7,22.4,22.1c1.8,2.9,3.5,5.9,5.3,8.8c0.6,1.1,1.1,2.2,1.7,3.3c0.7,1.2,1.1,2.6,1.8,3.8
	c0.4,1.2,1.2,1.4,2.4,1.4c4,0,8-0.5,12.1-0.3c4.5,0.2,8.9,0.7,13.2,2c0.7,0.2,1.5,0,2.2,0.3l0,0c1.2,0.8,2.7,0.6,3.8,1.5
	c0.7,0.3,1.5,0.5,2.2,0.8c0.5,0.4,1,0.5,1.6,0.7c0.4,0,0.7,0,1.1,0.1c1.7,1.7,3.9,2.3,6.1,3.1c3.6,2.6,7.6,4.6,11.1,7.6
	c4.2,3.6,8.1,7.3,11.3,11.7c0.3,0.3,0.6,0.6,1,0.9c2.1,2.9,4,6,5.7,9.2c1,2.3,2,4.6,3.1,6.8c4.2,10.2,5.6,20.9,4.9,31.8
	c-0.5,6.6-1.8,13.1-4.3,19.3c-0.1,0.3-0.2,0.7-0.3,1.1c-0.4,1-1.2,1.9-1.2,3.1c-2,3.5-3.6,7.2-5.9,10.5c-1.9,2.6-3.9,5.2-5.8,7.9
	c-0.9,0.9-1.8,1.8-2.6,2.7c-2.3,2.1-4.6,4.1-6.9,6.1l0,0c-1.4,1-2.9,1.9-4.2,3.1l0,0c-1,0.6-2.2,1-3,1.9l0,0
	c-0.8,0.2-1.3,0.7-1.9,1.1c-3.4,2-7.1,3.4-10.7,5c-1.8-0.3-3.3,0.8-4.8,1.2c-2.2,0.7-4.6,0.5-6.6,1.8c-35,2.5-70,0.7-105,1.1
	c-27.9,0.3-55.9,0.1-83.8,0c-13.4-0.1-25.4-4.3-36-12.4c-0.3-0.2-0.5-0.5-0.8-0.8c-3.5-3.2-6.9-6.6-9.9-10.3l0,0
	c-1-1.5-1.8-3.2-3.1-4.6c-3-4.7-5-9.8-6.4-15.2c-0.3-1-0.5-2.1-0.8-3.1c-1.4-7.8-1.3-15.5,0-23.3l0,0c0.6-1.5,0.9-3,1.1-4.6
	c0,0,0,0,0,0c1.3-0.9,1.1-2.5,1.6-3.7c3.7-10.1,9.8-18.5,18.3-25.2C120.2,250.8,120.9,250.1,121.6,249.4z"/>
</svg>
